<?xml version="1.0" encoding="UTF-8"?><svg id="Layer_2" xmlns="http://www.w3.org/2000/svg" viewBox="0 0 86.95 76.4"><defs><style>.cls-1{fill:#3324f5;}</style></defs><g id="Layer_3"><g><g><path class="cls-1" d="m7.02,40.64C3.1,43.88.16,48.05,0,53.29c-.14,4.65,1.82,9.32,5.01,12.67,7.18,7.56,18.98,7.68,28.15,4.25,5.99-2.24,11.34-5.73,16.53-9.4,1.69-1.2.07-4.02-1.64-2.81-7.76,5.5-16.5,11.17-26.37,11.17-8.39,0-17.16-4.74-18.33-13.74-.68-5.24,2.08-9.28,5.97-12.49,1.61-1.33-.7-3.62-2.3-2.3h0Z"/><path class="cls-1" d="m33.32,6.36c-6.22-1.31-12.84.25-17.34,4.91-2.13,2.21-3.57,5-4.03,8.04-.57,3.8.12,7.71,1.2,11.36.59,2,3.73,1.15,3.13-.86-1.62-5.51-2.3-11.77,2-16.24,3.66-3.81,9.08-5.15,14.17-4.08,2.04.43,2.91-2.7.86-3.13h0Z"/><path class="cls-1" d="m65.56,15.87c-2.86-7.32-8.78-14.21-16.88-15.6-3.74-.64-7.57-.18-11,1.44-3.71,1.75-6.3,4.91-7.72,8.71-.92,2.48-1.35,5.15-1.58,7.77-.12,1.44-.16,2.88-.11,4.33.02.55-.11,1.67.15,2.16-.14-.27.56-.2.13-.14-.06,0-.22.32-.25.37l1.4-.8c-3.65.19-7.29.84-10.73,2.08-1.46.53-2.96,1.13-4.29,1.95-.31.19-.54.43-.82.64-.58.44.25-.22.03-.09-.87.52-1.7,1.22-2.42,1.92-4.59,4.48-5.58,11.79-3.37,17.65s6.83,9.8,12.24,12.15c6.49,2.81,13.64,2.94,20.54,1.93,8.17-1.2,15.94-4.11,24.01-5.77.69-.14,1.2-.89,1.19-1.57-.04-6.82,1.46-13.51,1.81-20.3.33-6.35-.1-12.84-2.34-18.84-.73-1.94-3.87-1.1-3.13.86,2.21,5.9,2.56,12.19,2.2,18.43-.38,6.64-1.83,13.18-1.79,19.84l1.19-1.57c-10.92,2.24-21.52,6.85-32.87,6.2-9.08-.53-19.45-5.7-20.81-15.64-.67-4.87,1.09-9.67,5.18-12.5.24-.17.48-.31.7-.5l.25-.33c.06-.1.03-.06-.07.12-.45.24.34-.09.46-.15.25-.14.51-.27.76-.39,1.25-.61,2.57-1.08,3.9-1.48,2.52-.76,5.07-1.16,7.69-1.38,1.04-.08,1.71-.4,2.21-1.34.56-1.05.09-2.6.06-3.76-.08-2.77.15-5.56.77-8.26,1.03-4.47,3.47-8.24,7.9-9.87,9.77-3.6,18.8,3.77,22.24,12.57.75,1.93,3.9,1.09,3.13-.86Z"/></g><path class="cls-1" d="m4.18,47.55c-.05,3.8-.02,7.59.09,11.39l6.06-1.64c-1.25-2.48-1.63-4.73-1.52-7.49l-6.38.86c1.86,5.5,5.64,9.77,10.74,12.55,5.7,3.11,13.96,5.76,20.48,5.05,4.06-.44,4.26-6.7,0-6.5-8.46.41-16.25-3.26-21.02-10.32-1.37-2.03-5.52-2.24-5.94.78-1.02,7.23,5.08,14.26,10.39,18.51l3.94-5.1c-2.74-1.42-8.34-3.19-9.95-5.99l-3.67,4.77c1.51.23,2.95,2.51,4.29,3.38,1.76,1.14,3.78,1.99,5.82,2.48,4.73,1.12,9.56.32,14.07-1.28,3.91-1.39,2.23-7.67-1.73-6.27-4.3,1.53-8.86,2.38-13.18.37-2.87-1.34-4.35-4.46-7.55-4.95-2.68-.41-5.2,2.11-3.67,4.77,2.5,4.35,8.03,6.12,12.28,8.32,3.09,1.6,6.97-2.68,3.94-5.1-2.84-2.27-9.32-7.91-8.72-12.18l-5.94.78c6.02,8.9,15.85,14.06,26.64,13.54v-6.5c-8.75.96-21.92-3.9-24.95-12.82-1.17-3.46-6.22-2.88-6.38.86s.66,7.3,2.4,10.77c1.46,2.9,6.15,1.5,6.06-1.64-.11-3.8-.14-7.59-.09-11.39.05-4.18-6.45-4.19-6.5,0h0Z"/><path class="cls-1" d="m42.32,60.82c-1.34-.09-2.68-.1-4.02,0-.76.06-1.52.15-2.28.26-.63.09-1.24.2-1.8.53-.73.43-1.2,1.22-1.17,2.07s.62,1.66,1.42,2.01c1.27.57,2.85.58,4.22.44.84-.08,1.67-.69,1.62-1.62-.04-.81-.72-1.71-1.62-1.62-.51.05-1.03.07-1.54.05-.27-.01-.54-.04-.81-.06.24.02.06.01-.08-.01-.09-.01-.17-.03-.26-.05s-.29-.15-.09-.01c.24.17-.02-.06-.07-.05.17-.05.39.49.41.58.07.29,0,.5-.14.76-.18.26-.2.32-.08.18l-.18.14c.23-.16-.26.07-.07.02.2-.05.38-.1.58-.14.24-.04.49-.08.74-.11-.33.04.02,0,.08,0,.12-.01.25-.03.37-.04.52-.05,1.04-.09,1.56-.12,1.07-.05,2.13-.03,3.2.04.85.06,1.66-.79,1.62-1.62-.04-.93-.71-1.56-1.62-1.62h0Z"/><path class="cls-1" d="m29.99,9.01c-3.96-.62-7.85.39-11.34,2.28-1.62.88-3.02,2.06-3.76,3.78s-1.08,3.83-1.46,5.74c-.2,1-.38,2-.55,3.01-.19,1.11-.49,2.31.33,3.25,1.33,1.52,3.55.93,5.09.11.65-.34,1.26-.79,1.97-1.01.85-.27,1.75-.26,2.63-.3,1.79-.08,3.6-.37,5-1.59,1.67-1.45,1.5-3.72,1.85-5.71.38-2.16,1-4.27,1.81-6.31.24-.6-.15-1.57-.75-1.84-3.31-1.46-5.19,2.44-5.64,5.11-.5,2.95.04,5.94,1.08,8.71.73,1.95,3.54,1.21,3.13-.86-.24-1.21-.85-2.27-1.38-3.37s-.85-2.25-1.03-3.44c-.37-2.46-.14-5,.06-7.47.14-1.69-2.23-2.1-3.03-.82-1.58,2.52-2.01,5.48-2.13,8.4-.1,2.54-.39,5.66,1.64,7.57,1.29,1.22,3.61-.38,2.55-1.97-1.82-2.74-2.69-5.87-3.28-9.07-.3-1.58-2.79-1.52-3.13,0-.75,3.34-.74,6.73.04,10.06l2.97-1.25c-1.13-2.12-1.9-4.45-2.2-6.84-.09-.72-.44-1.36-1.19-1.57-.64-.18-1.55.1-1.84.75-.78,1.75-.48,3.41-.2,5.24.22,1.45.16,2.61-1.33,3.52l2.22.58c-.73-1.34-.12-3.27.03-4.7.09-.87-.81-1.62-1.62-1.62-.96,0-1.53.75-1.62,1.62-.23,2.17-.69,4.31.41,6.34.41.76,1.49,1.03,2.22.58,1.97-1.21,3.14-3.06,3.04-5.41-.04-.92-.23-1.83-.36-2.74-.03-.24-.08-.66-.07-1.06,0-.31.04-.57.1-.72l-3.03-.82c.37,2.99,1.22,5.81,2.64,8.48.89,1.67,3.38.5,2.97-1.25-.64-2.75-.66-5.58-.04-8.33h-3.13c.64,3.45,1.65,6.9,3.61,9.85l2.55-1.97c-.59-.55-.69-1.33-.72-2.11-.05-1.15,0-2.31.05-3.45.11-2.26.45-4.52,1.67-6.47l-3.03-.82c-.22,2.68-.38,5.36.01,8.04.19,1.34.56,2.61,1.1,3.85.47,1.09,1.13,2.07,1.36,3.25l3.13-.86c-.69-1.84-1.19-3.76-1.17-5.74,0-.89.13-1.76.4-2.61.14-.44.3-.89.56-1.27.04-.06.29-.37.29-.37.08-.23.46.17-.3-.17l-.75-1.84c-.79,1.99-1.4,4.05-1.78,6.16-.19,1.03-.29,2.07-.43,3.1-.1.78-.35,1.26-1.09,1.58-1.67.74-3.68.27-5.43.71-.97.25-1.83.75-2.7,1.23-.32.18-.64.36-.98.48-.13.04-.26.07-.4.1-.34.07-.23-.15-.11,0l.42.72c-.11-.34.11-.96.17-1.3.09-.5.18-1,.27-1.5.19-1,.39-2,.61-2.99.37-1.68.57-3.6,1.99-4.75,1.32-1.07,3.09-1.77,4.71-2.26,1.75-.54,3.62-.81,5.45-.52.87.14,1.75-.22,2-1.13.21-.77-.26-1.86-1.13-2h0Z"/><g><path class="cls-1" d="m52.04,59.69l-.39,2.13c-.86,3.18-2.88,3.76-3.91,6.81-1.24,3.67.92,5.95,4.6,5.76,10.45-.53,25.07-15.68,25.62-29.69.19-2.64-.71-5.51-2.89-7.01-2.19-1.49-5.71-.96-6.83,1.43,0,0,1.15,8.48-2.63,10.07l-1.16,5.77-12.41,4.71Z"/><path class="cls-1" d="m50.11,59.16c-.23,1.29-.37,2.56-1.05,3.7-1.02,1.69-2.39,2.97-3.1,4.86-1.45,3.84.29,7.91,4.55,8.56,3.49.54,7.15-.82,10.17-2.47,3.46-1.89,6.58-4.5,9.24-7.39,5.5-5.98,10.11-14.08,10.07-22.43-.02-4.4-2.76-8.91-7.52-9.11-1.99-.08-4.07.73-5.33,2.3-.82,1.03-.9,1.8-.81,2.98.1,1.36.12,2.9-.08,4.14-.1.64-.31,1.53-.52,1.98-.31.67-.45.8-.95,1.11-1.32.82-1.32,2.29-1.6,3.69l-.67,3.36,1.4-1.4c-4.14,1.57-8.27,3.14-12.41,4.71-1.01.38-1.7,1.35-1.4,2.46.27.97,1.45,1.78,2.46,1.4,3.49-1.33,6.98-2.65,10.47-3.98,1.45-.55,3.01-.86,3.42-2.56s.71-3.57,1.07-5.34l-.92,1.2c4.04-1.86,4.12-8.03,3.62-11.79l-.27,1.01c.89-1.7,3.26-1.59,4.51-.35,1.72,1.7,1.63,4.35,1.36,6.57-.59,4.87-2.88,9.48-5.68,13.45s-6.31,7.44-10.42,9.92c-1.69,1.02-3.47,1.86-5.39,2.34-1.31.32-3.64.82-4.65-.44-1.27-1.59.93-4.23,1.93-5.52,1.41-1.82,1.94-3.69,2.34-5.9.46-2.52-3.4-3.6-3.86-1.06Z"/></g><path class="cls-1" d="m79.78,41.83c3.62-2.08,6.3-5.73,7.14-9.83.14-.69-.2-1.49-.94-1.66-.67-.15-1.51.2-1.66.94-.38,1.86-.99,3.26-2.11,4.83-.07.09-.13.18-.2.28.11-.14-.04.06-.08.1-.14.18-.29.35-.44.52-.3.34-.62.66-.96.97-.17.15-.34.3-.52.45-.09.07-.18.14-.27.21.14-.11-.06.04-.11.08-.39.28-.79.54-1.21.78-.63.36-.85,1.22-.48,1.85s1.21.85,1.85.48h0Z"/><path class="cls-1" d="m76.39,38.31c3.29-5.25,4.63-11.86,2.49-17.79-.59-1.62-3.2-.92-2.6.72,1.91,5.31.72,11.02-2.22,15.71-.93,1.48,1.41,2.83,2.33,1.36h0Z"/></g></g></svg>